<svg xmlns="http://www.w3.org/2000/svg" style="" width="671.5" height="671.5"><rect id="backgroundrect" width="100%" height="100%" x="0" y="0" fill="none" stroke="none"/><radialGradient id="bg" cx="271.2532043457031" cy="230.7552032470703" r="431.2995910644531" gradientUnits="userSpaceOnUse"><stop offset="0" style="stop-color:#EDE806"/><stop offset="0.332" style="stop-color:#EDE806"/><stop offset="0.6987" style="stop-color:#F2D202"/><stop offset="1" style="stop-color:#F5C400"/></radialGradient><g class="currentLayer" style=""><title>Layer 1</title><circle fill="none" stroke="#000" stroke-width="44" stroke-miterlimit="10" cx="335.79998779296875" cy="335.79998779296875" r="313.79998779296875" id="svg_1" class=""/><path d="M357.1,536.9c-92.3,0-136.4-49.2-157.1-90.6c-11.6-23.1-17-46.1-19.6-62.9c-2.1-13.3,8.2-25.4,21.7-25.4h19.9h-22l2,0c10.9,0,20.2,7.9,21.8,18.7c2.1,13.5,6.5,32.5,16.1,51.1c22.1,43.1,61.5,65,117.1,65s95-21.9,117.1-65c9.6-18.6,14-37.7,16.1-51.1c1.7-10.8,10.9-18.7,21.8-18.7l0,0c13.5,0,23.8,12,21.7,25.4c-2.6,16.7-8.1,39.8-19.6,62.9C493.4,487.7,449.4,536.9,357.1,536.9z" id="svg_2"/><circle cx="268" cy="235.60000610351562" r="44.70000076293945" id="svg_3"/><circle cx="448.1000061035156" cy="235.60000610351562" r="44.70000076293945" id="svg_4"/></g></svg>